<svg xmlns="http://www.w3.org/2000/svg" viewBox="0 0 320 200" width="320" height="200">
  <!-- Muted sage green background -->
  <rect width="320" height="200" fill="#7b9a8b" opacity="0.3"/>
  
  <!-- Desk -->
  <ellipse cx="160" cy="170" rx="140" ry="15" fill="#b8a088" opacity="0.4"/>
  <rect x="30" y="155" width="260" height="15" fill="#c9b398" rx="3"/>
  
  <!-- Chair -->
  <ellipse cx="85" cy="145" rx="25" ry="12" fill="#a89080"/>
  <rect x="70" y="120" width="30" height="30" fill="#b8a090" rx="15"/>
  <rect x="80" y="95" width="10" height="30" fill="#a89080"/>
  
  <!-- Person -->
  <!-- Head -->
  <circle cx="110" cy="105" r="12" fill="#d4a88c"/>
  <!-- Hair -->
  <path d="M 100 100 Q 105 92 115 95 Q 120 98 118 105 L 115 110 Q 112 100 105 100 Z" fill="#3d3d3d"/>
  <!-- Body -->
  <path d="M 105 115 L 100 145 L 110 150 L 115 145 L 110 115 Z" fill="#7b9a8b"/>
  <!-- Arm pointing -->
  <path d="M 110 120 Q 130 125 150 128" stroke="#d4a88c" stroke-width="4" fill="none" stroke-linecap="round"/>
  <circle cx="150" cy="128" r="3" fill="#d4a88c"/>
  
  <!-- Monitor -->
  <rect x="155" y="80" width="95" height="65" fill="#2d2d2d" rx="3"/>
  <rect x="160" y="85" width="85" height="50" fill="#f5f5f5" rx="2"/>
  <!-- Stand -->
  <rect x="195" y="145" width="15" height="10" fill="#4d4d4d"/>
  <rect x="185" y="155" width="35" height="3" fill="#4d4d4d" rx="1"/>
  
  <!-- Patient cards on screen -->
  <rect x="165" y="90" width="35" height="18" fill="#e8dfd0" rx="2"/>
  <circle cx="172" cy="99" r="4" fill="#b8a090"/>
  <rect x="178" y="95" width="18" height="2" fill="#999"/>
  <rect x="178" y="99" width="15" height="2" fill="#999"/>
  <rect x="178" y="103" width="12" height="2" fill="#999"/>
  
  <rect x="205" y="90" width="35" height="18" fill="#e8dfd0" rx="2"/>
  <circle cx="212" cy="99" r="4" fill="#b8a090"/>
  <rect x="218" y="95" width="18" height="2" fill="#999"/>
  <rect x="218" y="99" width="15" height="2" fill="#999"/>
  <rect x="218" y="103" width="12" height="2" fill="#999"/>
  
  <rect x="165" y="115" width="35" height="18" fill="#e8dfd0" rx="2"/>
  <circle cx="172" cy="124" r="4" fill="#b8a090"/>
  <rect x="178" y="120" width="18" height="2" fill="#999"/>
  <rect x="178" y="124" width="15" height="2" fill="#999"/>
  <rect x="178" y="128" width="12" height="2" fill="#999"/>
  
  <rect x="205" y="115" width="35" height="18" fill="#e8dfd0" rx="2"/>
  <circle cx="212" cy="124" r="4" fill="#b8a090"/>
  <rect x="218" y="120" width="18" height="2" fill="#999"/>
  <rect x="218" y="124" width="15" height="2" fill="#999"/>
  <rect x="218" y="128" width="12" height="2" fill="#999"/>
  
  <!-- Cursor -->
  <path d="M 235 115 L 235 125 L 238 123 L 240 127 L 242 126 L 240 122 L 243 122 Z" fill="#2d2d2d"/>
  
  <!-- Plant decoration -->
  <ellipse cx="270" cy="160" rx="12" ry="5" fill="#c9b398"/>
  <path d="M 268 155 Q 265 145 268 140" stroke="#5d7a5d" stroke-width="2" fill="none"/>
  <path d="M 272 155 Q 275 147 273 142" stroke="#5d7a5d" stroke-width="2" fill="none"/>
  <ellipse cx="268" cy="140" rx="4" ry="6" fill="#6d8a6d"/>
  <ellipse cx="273" cy="142" rx="4" ry="6" fill="#6d8a6d"/>
  
  <!-- Shelf in background -->
  <rect x="30" y="50" width="60" height="3" fill="#8a9a8a" opacity="0.3"/>
  <rect x="35" y="35" width="8" height="12" fill="#7a8a7a" opacity="0.3"/>
  <rect x="50" y="40" width="12" height="8" fill="#7a8a7a" opacity="0.3"/>
  
  <!-- Books -->
  <rect x="36" y="47" width="3" height="8" fill="#6a7a6a" opacity="0.3"/>
  <rect x="40" y="47" width="3" height="8" fill="#7a8a7a" opacity="0.3"/>
  <rect x="44" y="47" width="3" height="8" fill="#6a7a6a" opacity="0.3"/>
</svg>
